<?xml version="1.0" encoding="UTF-8" standalone="no"?><!DOCTYPE svg PUBLIC "-//W3C//DTD SVG 1.1//EN" "http://www.w3.org/Graphics/SVG/1.1/DTD/svg11.dtd"><svg width="100%" height="100%" viewBox="0 0 185 23" version="1.1" xmlns="http://www.w3.org/2000/svg" xmlns:xlink="http://www.w3.org/1999/xlink" xml:space="preserve" xmlns:serif="http://www.serif.com/" style="fill-rule:evenodd;clip-rule:evenodd;stroke-linejoin:round;stroke-miterlimit:2;"><g><path d="M3.371,3.685l-0,15.686l3.191,-0l-0,-5.506l0.045,0c0.389,0.569 0.887,1 1.494,1.292c0.607,0.292 1.27,0.439 1.989,0.439c0.854,-0 1.599,-0.165 2.236,-0.495c0.637,-0.329 1.168,-0.771 1.595,-1.326c0.427,-0.554 0.746,-1.191 0.955,-1.91c0.21,-0.719 0.315,-1.468 0.315,-2.247c0,-0.824 -0.105,-1.614 -0.315,-2.371c-0.209,-0.756 -0.531,-1.419 -0.966,-1.989c-0.434,-0.569 -0.981,-1.026 -1.64,-1.37c-0.66,-0.345 -1.446,-0.517 -2.36,-0.517c-0.719,-0 -1.378,0.142 -1.977,0.427c-0.6,0.284 -1.094,0.741 -1.484,1.371l-0.045,-0l0,-1.484l-3.033,0Zm16.651,7.843l-3.033,0c0.03,0.779 0.206,1.427 0.528,1.944c0.322,0.517 0.734,0.932 1.236,1.247c0.502,0.315 1.075,0.539 1.719,0.674c0.644,0.135 1.303,0.203 1.977,0.203c0.66,-0 1.308,-0.064 1.944,-0.192c0.637,-0.127 1.203,-0.348 1.697,-0.662c0.494,-0.315 0.895,-0.731 1.202,-1.248c0.307,-0.516 0.461,-1.157 0.461,-1.921c-0,-0.539 -0.105,-0.992 -0.315,-1.36c-0.21,-0.367 -0.487,-0.674 -0.831,-0.921c-0.345,-0.247 -0.738,-0.446 -1.18,-0.595c-0.442,-0.15 -0.895,-0.278 -1.36,-0.382c-0.449,-0.105 -0.891,-0.203 -1.325,-0.293c-0.435,-0.089 -0.821,-0.191 -1.158,-0.303c-0.337,-0.112 -0.61,-0.258 -0.82,-0.438c-0.21,-0.18 -0.315,-0.412 -0.315,-0.697c0,-0.239 0.06,-0.43 0.18,-0.573c0.12,-0.142 0.266,-0.251 0.438,-0.326c0.173,-0.075 0.364,-0.123 0.573,-0.146c0.21,-0.022 0.405,-0.033 0.585,-0.033c0.569,-0 1.063,0.108 1.483,0.325c0.419,0.218 0.652,0.633 0.696,1.248l3.034,-0c-0.06,-0.719 -0.243,-1.315 -0.55,-1.787c-0.307,-0.472 -0.693,-0.85 -1.158,-1.135c-0.464,-0.284 -0.992,-0.487 -1.584,-0.606c-0.592,-0.12 -1.202,-0.18 -1.831,-0.18c-0.63,-0 -1.244,0.056 -1.843,0.168c-0.599,0.113 -1.139,0.307 -1.618,0.585c-0.479,0.277 -0.865,0.655 -1.157,1.134c-0.293,0.48 -0.439,1.094 -0.439,1.843c0,0.509 0.105,0.94 0.315,1.292c0.21,0.352 0.487,0.644 0.831,0.877c0.345,0.232 0.738,0.419 1.18,0.561c0.442,0.143 0.895,0.266 1.36,0.371c1.138,0.24 2.026,0.48 2.663,0.719c0.636,0.24 0.955,0.6 0.955,1.079c-0,0.285 -0.068,0.521 -0.202,0.708c-0.135,0.187 -0.304,0.337 -0.506,0.449c-0.202,0.113 -0.427,0.195 -0.674,0.247c-0.247,0.053 -0.483,0.079 -0.708,0.079c-0.315,0 -0.618,-0.037 -0.91,-0.112c-0.292,-0.075 -0.551,-0.191 -0.775,-0.349c-0.225,-0.157 -0.409,-0.359 -0.551,-0.606c-0.142,-0.247 -0.214,-0.543 -0.214,-0.888Zm-10.786,1.685c-0.509,0 -0.944,-0.104 -1.303,-0.314c-0.36,-0.21 -0.648,-0.483 -0.866,-0.82c-0.217,-0.337 -0.374,-0.731 -0.471,-1.18c-0.098,-0.45 -0.147,-0.906 -0.147,-1.371c0,-0.479 0.045,-0.944 0.135,-1.393c0.09,-0.45 0.244,-0.847 0.461,-1.191c0.217,-0.345 0.502,-0.626 0.854,-0.843c0.352,-0.217 0.79,-0.326 1.314,-0.326c0.51,0 0.941,0.109 1.293,0.326c0.352,0.217 0.64,0.502 0.865,0.854c0.225,0.352 0.386,0.753 0.483,1.202c0.097,0.45 0.146,0.907 0.146,1.371c-0,0.465 -0.045,0.921 -0.135,1.371c-0.09,0.449 -0.243,0.843 -0.461,1.18c-0.217,0.337 -0.501,0.61 -0.853,0.82c-0.352,0.21 -0.791,0.314 -1.315,0.314Z" style="fill:#fff;fill-rule:nonzero;"/><path d="M15.765,2.287c-0.563,-0.544 -1.207,-1.007 -1.934,-1.387c-1.098,-0.574 -2.399,-0.9 -3.921,-0.9c-0.937,-0 -1.813,0.147 -2.632,0.43c-0.279,-0.076 -0.571,-0.115 -0.874,-0.115l-3.033,-0c-1.862,-0 -3.371,1.509 -3.371,3.37l-0,15.686c0,1.861 1.509,3.371 3.371,3.371l3.191,-0c1.861,-0 3.371,-1.51 3.371,-3.371l-0,-0.407l0.157,0.002c1.448,0 2.705,-0.312 3.785,-0.871c0.732,-0.379 1.382,-0.847 1.95,-1.401c0.347,0.33 0.726,0.623 1.137,0.881c0.825,0.517 1.762,0.896 2.819,1.118c0.87,0.181 1.759,0.273 2.668,0.273c0.884,0 1.752,-0.086 2.605,-0.256c1.07,-0.214 2.015,-0.596 2.846,-1.125c0.94,-0.598 1.706,-1.386 2.29,-2.369c0.585,-0.984 0.934,-2.189 0.934,-3.643c-0,-1.157 -0.266,-2.126 -0.702,-2.927c0.296,-0.562 0.429,-1.202 0.375,-1.847c-0.112,-1.353 -0.506,-2.458 -1.084,-3.345c-0.589,-0.905 -1.331,-1.625 -2.221,-2.171c-0.786,-0.481 -1.676,-0.833 -2.677,-1.036c-0.808,-0.164 -1.641,-0.247 -2.5,-0.247c-0.842,-0 -1.663,0.076 -2.464,0.226c-0.995,0.187 -1.888,0.519 -2.684,0.979c-0.522,0.302 -0.99,0.662 -1.402,1.082Zm-12.394,1.398l-0,15.686l3.191,-0l-0,-5.506l0.045,0c0.389,0.569 0.887,1 1.494,1.292c0.607,0.292 1.27,0.439 1.989,0.439c0.854,-0 1.599,-0.165 2.236,-0.495c0.637,-0.329 1.168,-0.771 1.595,-1.326c0.427,-0.554 0.746,-1.191 0.955,-1.91c0.21,-0.719 0.315,-1.468 0.315,-2.247c0,-0.824 -0.105,-1.614 -0.315,-2.371c-0.209,-0.756 -0.531,-1.419 -0.966,-1.989c-0.434,-0.569 -0.981,-1.026 -1.64,-1.37c-0.66,-0.345 -1.446,-0.517 -2.36,-0.517c-0.719,-0 -1.378,0.142 -1.977,0.427c-0.6,0.284 -1.094,0.741 -1.484,1.371l-0.045,-0l0,-1.484l-3.033,0Zm16.651,7.843l-3.033,0c0.03,0.779 0.206,1.427 0.528,1.944c0.322,0.517 0.734,0.932 1.236,1.247c0.502,0.315 1.075,0.539 1.719,0.674c0.644,0.135 1.303,0.203 1.977,0.203c0.66,-0 1.308,-0.064 1.944,-0.192c0.637,-0.127 1.203,-0.348 1.697,-0.662c0.494,-0.315 0.895,-0.731 1.202,-1.248c0.307,-0.516 0.461,-1.157 0.461,-1.921c-0,-0.539 -0.105,-0.992 -0.315,-1.36c-0.21,-0.367 -0.487,-0.674 -0.831,-0.921c-0.345,-0.247 -0.738,-0.446 -1.18,-0.595c-0.442,-0.15 -0.895,-0.278 -1.36,-0.382c-0.449,-0.105 -0.891,-0.203 -1.325,-0.293c-0.435,-0.089 -0.821,-0.191 -1.158,-0.303c-0.337,-0.112 -0.61,-0.258 -0.82,-0.438c-0.21,-0.18 -0.315,-0.412 -0.315,-0.697c0,-0.239 0.06,-0.43 0.18,-0.573c0.12,-0.142 0.266,-0.251 0.438,-0.326c0.173,-0.075 0.364,-0.123 0.573,-0.146c0.21,-0.022 0.405,-0.033 0.585,-0.033c0.569,-0 1.063,0.108 1.483,0.325c0.419,0.218 0.652,0.633 0.696,1.248l3.034,-0c-0.06,-0.719 -0.243,-1.315 -0.55,-1.787c-0.307,-0.472 -0.693,-0.85 -1.158,-1.135c-0.464,-0.284 -0.992,-0.487 -1.584,-0.606c-0.592,-0.12 -1.202,-0.18 -1.831,-0.18c-0.63,-0 -1.244,0.056 -1.843,0.168c-0.599,0.113 -1.139,0.307 -1.618,0.585c-0.479,0.277 -0.865,0.655 -1.157,1.134c-0.293,0.48 -0.439,1.094 -0.439,1.843c0,0.509 0.105,0.94 0.315,1.292c0.21,0.352 0.487,0.644 0.831,0.877c0.345,0.232 0.738,0.419 1.18,0.561c0.442,0.143 0.895,0.266 1.36,0.371c1.138,0.24 2.026,0.48 2.663,0.719c0.636,0.24 0.955,0.6 0.955,1.079c-0,0.285 -0.068,0.521 -0.202,0.708c-0.135,0.187 -0.304,0.337 -0.506,0.449c-0.202,0.113 -0.427,0.195 -0.674,0.247c-0.247,0.053 -0.483,0.079 -0.708,0.079c-0.315,0 -0.618,-0.037 -0.91,-0.112c-0.292,-0.075 -0.551,-0.191 -0.775,-0.349c-0.225,-0.157 -0.409,-0.359 -0.551,-0.606c-0.142,-0.247 -0.214,-0.543 -0.214,-0.888Zm-10.786,1.685c-0.509,0 -0.944,-0.104 -1.303,-0.314c-0.36,-0.21 -0.648,-0.483 -0.866,-0.82c-0.217,-0.337 -0.374,-0.731 -0.471,-1.18c-0.098,-0.45 -0.147,-0.906 -0.147,-1.371c0,-0.479 0.045,-0.944 0.135,-1.393c0.09,-0.45 0.244,-0.847 0.461,-1.191c0.217,-0.345 0.502,-0.626 0.854,-0.843c0.352,-0.217 0.79,-0.326 1.314,-0.326c0.51,0 0.941,0.109 1.293,0.326c0.352,0.217 0.64,0.502 0.865,0.854c0.225,0.352 0.386,0.753 0.483,1.202c0.097,0.45 0.146,0.907 0.146,1.371c0,0.465 -0.045,0.921 -0.135,1.371c-0.09,0.449 -0.243,0.843 -0.461,1.18c-0.217,0.337 -0.501,0.61 -0.853,0.82c-0.352,0.21 -0.791,0.314 -1.315,0.314Z" style="fill:#2a579b;"/><text x="36.649px" y="15.659px" style="font-family:'HelveticaNeue-Bold', 'Helvetica Neue';font-weight:700;font-size:16px;fill:#2a579b;">P<tspan x="47.641px 52.089px 61.593px 71.097px 75.545px 85.353px 95.449px 100.217px 110.921px 121.017px 135.833px 145.337px 151.289px 161.097px 165.545px 175.353px " y="15.659px 15.659px 15.659px 15.659px 15.659px 15.659px 15.659px 15.659px 15.659px 15.659px 15.659px 15.659px 15.659px 15.659px 15.659px 15.659px ">lacing Something</tspan></text></g></svg>