<?xml version="1.0" standalone="no"?>
<!DOCTYPE svg PUBLIC "-//W3C//DTD SVG 20010904//EN"
 "http://www.w3.org/TR/2001/REC-SVG-20010904/DTD/svg10.dtd">
<svg version="1.0" xmlns="http://www.w3.org/2000/svg"
 width="256.000000pt" height="256.000000pt" viewBox="0 0 256.000000 256.000000"
 preserveAspectRatio="xMidYMid meet">
<metadata>
Created by potrace 1.14, written by Peter Selinger 2001-2017
</metadata>
<g transform="translate(0.000000,256.000000) scale(0.100000,-0.100000)"
fill="#000000" stroke="none">
<path d="M750 2212 c-19 -1 -59 -7 -88 -13 -29 -6 -146 -11 -260 -12 -191 -2
-210 -4 -247 -23 -59 -32 -104 -80 -131 -139 l-25 -53 3 -718 c3 -666 4 -721
21 -751 30 -55 78 -103 131 -131 50 -25 55 -26 251 -26 198 0 200 1 256 28 86
43 144 129 153 231 5 45 10 50 49 51 143 3 297 63 404 157 l32 28 53 -39 c131
-98 271 -141 478 -146 87 -2 222 15 298 37 219 66 387 245 423 451 16 93 7
226 -20 298 -20 52 -21 61 -8 110 25 97 3 230 -56 343 -41 77 -155 191 -232
232 -179 94 -444 115 -672 54 -65 -18 -163 -67 -217 -110 l-49 -39 -61 45
c-144 107 -303 151 -486 135z"/>
</g>
</svg>
