<?xml version="1.0" encoding="UTF-8" standalone="no"?><!DOCTYPE svg PUBLIC "-//W3C//DTD SVG 1.1//EN" "http://www.w3.org/Graphics/SVG/1.1/DTD/svg11.dtd"><svg width="100%" height="100%" viewBox="0 0 85 85" version="1.1" xmlns="http://www.w3.org/2000/svg" xmlns:xlink="http://www.w3.org/1999/xlink" xml:space="preserve" xmlns:serif="http://www.serif.com/" style="fill-rule:evenodd;clip-rule:evenodd;stroke-linejoin:round;stroke-miterlimit:2;"><rect id="Artboard2" x="0" y="0" width="84.519" height="84.519" style="fill:none;"/><clipPath id="_clip1"><rect x="0" y="0" width="84.519" height="84.519"/></clipPath><g clip-path="url(#_clip1)"><path d="M9.082,21.344l-0,42.687l8.684,0l-0,-14.983l0.122,-0c1.06,1.549 2.416,2.721 4.067,3.516c1.651,0.796 3.456,1.193 5.413,1.193c2.324,0 4.352,-0.448 6.085,-1.345c1.733,-0.897 3.18,-2.1 4.342,-3.609c1.162,-1.508 2.028,-3.241 2.599,-5.198c0.571,-1.957 0.856,-3.996 0.856,-6.116c0,-2.242 -0.285,-4.393 -0.856,-6.452c-0.571,-2.059 -1.447,-3.863 -2.63,-5.412c-1.182,-1.55 -2.67,-2.793 -4.464,-3.731c-1.794,-0.938 -3.935,-1.407 -6.422,-1.407c-1.957,0 -3.751,0.388 -5.381,1.162c-1.631,0.775 -2.977,2.019 -4.037,3.731l-0.122,0l-0,-4.036l-8.256,-0Zm45.317,21.344l-8.256,-0c0.081,2.12 0.561,3.883 1.437,5.29c0.877,1.406 1.998,2.538 3.364,3.394c1.366,0.856 2.925,1.468 4.678,1.835c1.754,0.367 3.547,0.55 5.382,0.55c1.794,0 3.557,-0.173 5.29,-0.52c1.733,-0.346 3.272,-0.948 4.618,-1.804c1.345,-0.856 2.436,-1.988 3.272,-3.394c0.835,-1.407 1.253,-3.15 1.253,-5.229c0,-1.468 -0.285,-2.701 -0.856,-3.7c-0.571,-0.999 -1.325,-1.835 -2.263,-2.508c-0.937,-0.672 -2.008,-1.213 -3.21,-1.62c-1.203,-0.408 -2.437,-0.755 -3.701,-1.04c-1.223,-0.285 -2.425,-0.55 -3.608,-0.795c-1.182,-0.245 -2.232,-0.52 -3.149,-0.826c-0.918,-0.305 -1.662,-0.703 -2.233,-1.192c-0.57,-0.489 -0.856,-1.121 -0.856,-1.896c0,-0.652 0.163,-1.172 0.489,-1.56c0.327,-0.387 0.724,-0.682 1.193,-0.886c0.469,-0.204 0.989,-0.337 1.56,-0.398c0.57,-0.061 1.1,-0.092 1.59,-0.092c1.549,0 2.894,0.296 4.036,0.887c1.142,0.591 1.774,1.723 1.896,3.394l8.256,0c-0.163,-1.957 -0.662,-3.577 -1.498,-4.862c-0.836,-1.284 -1.886,-2.313 -3.15,-3.088c-1.264,-0.775 -2.701,-1.325 -4.311,-1.651c-1.611,-0.326 -3.272,-0.49 -4.985,-0.49c-1.712,0 -3.384,0.153 -5.015,0.459c-1.631,0.306 -3.098,0.836 -4.403,1.59c-1.305,0.755 -2.355,1.784 -3.15,3.089c-0.795,1.304 -1.192,2.976 -1.192,5.015c-0,1.386 0.285,2.558 0.856,3.516c0.571,0.958 1.325,1.753 2.263,2.385c0.938,0.632 2.008,1.142 3.211,1.529c1.202,0.388 2.436,0.724 3.7,1.009c3.098,0.653 5.514,1.305 7.247,1.957c1.733,0.653 2.599,1.631 2.599,2.936c-0,0.775 -0.184,1.417 -0.55,1.926c-0.367,0.51 -0.826,0.918 -1.376,1.223c-0.551,0.306 -1.162,0.53 -1.835,0.673c-0.673,0.143 -1.315,0.214 -1.927,0.214c-0.856,0 -1.681,-0.102 -2.477,-0.306c-0.795,-0.203 -1.498,-0.519 -2.109,-0.947c-0.612,-0.429 -1.111,-0.979 -1.499,-1.652c-0.387,-0.672 -0.581,-1.478 -0.581,-2.415Zm-29.355,4.586c-1.387,0 -2.569,-0.285 -3.547,-0.856c-0.979,-0.571 -1.764,-1.315 -2.355,-2.232c-0.591,-0.917 -1.019,-1.988 -1.284,-3.211c-0.265,-1.223 -0.398,-2.467 -0.398,-3.73c0,-1.305 0.122,-2.569 0.367,-3.792c0.245,-1.223 0.663,-2.304 1.254,-3.242c0.591,-0.937 1.366,-1.702 2.324,-2.293c0.958,-0.591 2.151,-0.887 3.578,-0.887c1.386,0 2.558,0.296 3.516,0.887c0.958,0.591 1.743,1.366 2.355,2.324c0.611,0.958 1.049,2.049 1.315,3.272c0.265,1.223 0.397,2.467 0.397,3.731c0,1.263 -0.122,2.507 -0.367,3.73c-0.245,1.223 -0.662,2.294 -1.254,3.211c-0.591,0.917 -1.365,1.661 -2.324,2.232c-0.958,0.571 -2.15,0.856 -3.577,0.856Z" style="fill:#fff;fill-rule:nonzero;"/><path d="M42.812,17.539c-1.532,-1.481 -3.285,-2.741 -5.262,-3.775c-2.988,-1.562 -6.529,-2.45 -10.672,-2.45c-2.549,-0 -4.935,0.4 -7.163,1.169c-0.758,-0.205 -1.555,-0.313 -2.377,-0.313l-8.256,0c-5.067,0 -9.174,4.107 -9.174,9.174l0,42.687c0,5.067 4.107,9.174 9.174,9.174l8.684,0c5.066,0 9.174,-4.107 9.174,-9.174l-0,-1.106l0.428,0.006c3.942,-0 7.363,-0.851 10.302,-2.373c1.992,-1.031 3.759,-2.302 5.305,-3.811c0.945,0.898 1.978,1.696 3.096,2.398c2.243,1.406 4.793,2.438 7.672,3.041c2.365,0.495 4.786,0.745 7.261,0.745c2.404,-0 4.767,-0.234 7.089,-0.698c2.911,-0.582 5.484,-1.622 7.744,-3.061c2.559,-1.628 4.643,-3.771 6.233,-6.447c1.591,-2.678 2.541,-5.957 2.541,-9.915c-0,-3.15 -0.722,-5.785 -1.908,-7.967c0.804,-1.53 1.166,-3.272 1.02,-5.026c-0.307,-3.682 -1.379,-6.688 -2.952,-9.104c-1.601,-2.461 -3.623,-4.422 -6.044,-5.906c-2.139,-1.311 -4.56,-2.269 -7.284,-2.821c-2.199,-0.446 -4.468,-0.672 -6.806,-0.672c-2.29,-0 -4.525,0.207 -6.705,0.616c-2.709,0.508 -5.138,1.412 -7.304,2.664c-1.421,0.821 -2.694,1.802 -3.816,2.945Zm-33.73,3.805l-0,42.687l8.684,0l-0,-14.983l0.122,-0c1.06,1.549 2.416,2.721 4.067,3.516c1.651,0.796 3.456,1.193 5.413,1.193c2.324,0 4.352,-0.448 6.085,-1.345c1.733,-0.897 3.18,-2.1 4.342,-3.609c1.162,-1.508 2.028,-3.241 2.599,-5.198c0.571,-1.957 0.856,-3.996 0.856,-6.116c0,-2.242 -0.285,-4.393 -0.856,-6.452c-0.571,-2.059 -1.447,-3.863 -2.63,-5.412c-1.182,-1.55 -2.67,-2.793 -4.464,-3.731c-1.794,-0.938 -3.935,-1.407 -6.422,-1.407c-1.957,0 -3.751,0.388 -5.381,1.162c-1.631,0.775 -2.977,2.019 -4.037,3.731l-0.122,0l-0,-4.036l-8.256,-0Zm10.107,34.411l0.141,-0.267l-0.006,-0.002l-0.135,0.269Zm35.21,-13.067l-8.256,-0c0.081,2.12 0.561,3.883 1.437,5.29c0.877,1.406 1.998,2.538 3.364,3.394c1.366,0.856 2.925,1.468 4.678,1.835c1.754,0.367 3.547,0.55 5.382,0.55c1.794,0 3.557,-0.173 5.29,-0.52c1.733,-0.346 3.272,-0.948 4.618,-1.804c1.345,-0.856 2.436,-1.988 3.272,-3.394c0.835,-1.407 1.253,-3.15 1.253,-5.229c0,-1.468 -0.285,-2.701 -0.856,-3.7c-0.571,-0.999 -1.325,-1.835 -2.263,-2.508c-0.937,-0.672 -2.008,-1.213 -3.21,-1.62c-1.203,-0.408 -2.437,-0.755 -3.701,-1.04c-1.223,-0.285 -2.425,-0.55 -3.608,-0.795c-1.182,-0.245 -2.232,-0.52 -3.149,-0.826c-0.918,-0.305 -1.662,-0.703 -2.233,-1.192c-0.57,-0.489 -0.856,-1.121 -0.856,-1.896c0,-0.652 0.163,-1.172 0.489,-1.56c0.327,-0.387 0.724,-0.682 1.193,-0.886c0.469,-0.204 0.989,-0.337 1.56,-0.398c0.57,-0.061 1.1,-0.092 1.59,-0.092c1.549,0 2.894,0.296 4.036,0.887c1.142,0.591 1.774,1.723 1.896,3.394l8.256,0c-0.163,-1.957 -0.662,-3.577 -1.498,-4.862c-0.836,-1.284 -1.886,-2.313 -3.15,-3.088c-1.264,-0.775 -2.701,-1.325 -4.311,-1.651c-1.611,-0.326 -3.272,-0.49 -4.985,-0.49c-1.712,0 -3.384,0.153 -5.015,0.459c-1.631,0.306 -3.098,0.836 -4.403,1.59c-1.305,0.755 -2.355,1.784 -3.15,3.089c-0.795,1.304 -1.192,2.976 -1.192,5.015c-0,1.386 0.285,2.558 0.856,3.516c0.571,0.958 1.325,1.753 2.263,2.385c0.938,0.632 2.008,1.142 3.211,1.529c1.202,0.388 2.436,0.724 3.7,1.009c3.098,0.653 5.514,1.305 7.247,1.957c1.733,0.653 2.599,1.631 2.599,2.936c-0,0.775 -0.184,1.417 -0.55,1.926c-0.367,0.51 -0.826,0.918 -1.376,1.223c-0.551,0.306 -1.162,0.53 -1.835,0.673c-0.673,0.143 -1.315,0.214 -1.927,0.214c-0.856,0 -1.681,-0.102 -2.477,-0.306c-0.795,-0.203 -1.498,-0.519 -2.109,-0.947c-0.612,-0.429 -1.111,-0.979 -1.499,-1.652c-0.387,-0.672 -0.581,-1.478 -0.581,-2.415Zm-29.355,4.586c-1.387,0 -2.569,-0.285 -3.547,-0.856c-0.979,-0.571 -1.764,-1.315 -2.355,-2.232c-0.591,-0.917 -1.019,-1.988 -1.284,-3.211c-0.265,-1.223 -0.398,-2.467 -0.398,-3.73c0,-1.305 0.122,-2.569 0.367,-3.792c0.245,-1.223 0.663,-2.304 1.254,-3.242c0.591,-0.937 1.366,-1.702 2.324,-2.293c0.958,-0.591 2.151,-0.887 3.578,-0.887c1.386,0 2.558,0.296 3.516,0.887c0.958,0.591 1.743,1.366 2.355,2.324c0.611,0.958 1.049,2.049 1.315,3.272c0.265,1.223 0.397,2.467 0.397,3.731c0,1.263 -0.122,2.507 -0.367,3.73c-0.245,1.223 -0.662,2.294 -1.254,3.211c-0.591,0.917 -1.365,1.661 -2.324,2.232c-0.958,0.571 -2.15,0.856 -3.577,0.856Z" style="fill:#2a579b;"/></g></svg>